<svg xmlns="http://www.w3.org/2000/svg" viewBox="0 0 24 24" fill="white">
  <path d="M19.4 13c.04-.32.06-.66.06-1 0-.34-.02-.68-.06-1l2.11-1.65a.5.5 0 00.12-.64l-2-3.46a.5.5 0 00-.61-.22l-2.49 1a7.4 7.4 0 00-1.73-1L14.5 2.4a.5.5 0 00-.5-.4h-4a.5.5 0 00-.5.4l-.38 2.65a7.4 7.4 0 00-1.73 1l-2.49-1a.5.5 0 00-.61.22l-2 3.46a.5.5 0 00.12.64L4.54 11c-.04.32-.06.66-.06 1 0 .34.02.68.06 1L2.43 14.65a.5.5 0 00-.12.64l2 3.46c.14.24.43.34.69.22l2.49-1c.52.4 1.1.73 1.73 1l.38 2.65c.04.24.25.42.5.42h4c.25 0 .46-.18.5-.42l.38-2.65c.63-.27 1.21-.6 1.73-1l2.49 1c.26.12.55.02.69-.22l2-3.46a.5.5 0 00-.12-.64L19.4 13zM12 15.5a3.5 3.5 0 110-7 3.5 3.5 0 010 7z"/>
</svg>
